<svg width="32" height="32" viewBox="0 0 32 32" fill="none" xmlns="http://www.w3.org/2000/svg">
<path fill-rule="evenodd" clip-rule="evenodd" d="M31.8118 0.983183L17.8578 15.6815V15.6844C17.7992 15.7369 17.7522 15.8017 17.7201 15.8744C17.6879 15.9472 17.6713 16.0262 17.6713 16.1062V29.5333C17.6713 29.5984 17.6838 29.6628 17.708 29.7229C17.7322 29.783 17.7677 29.8375 17.8125 29.8835C17.8572 29.9294 17.9103 29.9658 17.9688 29.9906C18.0272 30.0153 18.0898 30.028 18.153 30.0278H27.8657C27.9919 30.0272 28.117 30.0523 28.2339 30.1016C28.3507 30.1508 28.4569 30.2233 28.5465 30.3149C28.6361 30.4065 28.7073 30.5154 28.756 30.6353C28.8047 30.7552 28.83 30.8839 28.8303 31.0139C28.83 31.1439 28.8047 31.2725 28.756 31.3925C28.7073 31.5124 28.6361 31.6213 28.5465 31.7129C28.4569 31.8045 28.3507 31.877 28.2339 31.9262C28.117 31.9755 27.9919 32.0006 27.8657 32H4.13537C4.00912 32.0006 3.88401 31.9755 3.76719 31.9262C3.65036 31.877 3.54411 31.8045 3.45452 31.7129C3.36492 31.6213 3.29374 31.5124 3.24505 31.3925C3.19635 31.2725 3.1711 31.1439 3.17073 31.0139C3.17091 30.8838 3.19603 30.755 3.24464 30.6349C3.29326 30.5148 3.36441 30.4057 3.45402 30.314C3.54363 30.2222 3.64994 30.1496 3.76686 30.1002C3.88378 30.0509 4.00901 30.0258 4.13537 30.0264H14.8099C14.9042 30.0264 14.9964 29.9979 15.075 29.9444C15.1537 29.8909 15.2153 29.8147 15.2522 29.7254C15.289 29.6361 15.2996 29.5376 15.2825 29.4421C15.2654 29.3466 15.2214 29.2585 15.1559 29.1886L2.59873 15.9869C2.54007 15.9345 2.49307 15.8697 2.4609 15.7969C2.42873 15.7241 2.41215 15.6451 2.4123 15.5651L0 1.18971C0 0.70539 0.557879 0.450868 0.912379 0.766475L16.8183 15.0532C17.1431 15.3441 17.6487 15.1099 17.6487 14.6678V0.882828C17.6487 0.394146 18.0343 0 18.5117 0H31.4502C31.9559 0 32.1931 0.639942 31.8118 0.983183Z" fill="#00473C"/>
</svg>
